<?xml version="1.0" encoding="utf-8"?>
<!-- Generator: Adobe Illustrator 23.0.1, SVG Export Plug-In . SVG Version: 6.00 Build 0)  -->
<svg version="1.1" xmlns="http://www.w3.org/2000/svg" xmlns:xlink="http://www.w3.org/1999/xlink" x="0px" y="0px"
	 viewBox="0 0 400 225" style="enable-background:new 0 0 400 225;" xml:space="preserve">
<style type="text/css">
	.st0{fill-rule:evenodd;clip-rule:evenodd;}
</style>
<g id="svg">
	<g id="svgg">
		<path id="path0" class="st0" d="M178.2,51.4c-13.9,0.9-28.9,8.7-35.4,18.4c-0.6,0.9-1.1,1.8-1.1,2c0,0.3,0,0.3-2.8,0
			c-9.1-1.2-22.2-0.9-31.1,0.5c-24.5,4.1-20.7,17,8.6,29.2c46.8,19.5,119.1,28.8,133.9,17.3c8.6-6.7-3.9-19.4-29.2-29.9
			c-4.1-1.7-4.4-1.8-5.3-2.1l-0.8-0.3l0.2-2.3c0.6-7.8,0-12.4-1.9-16.2C207.6,56.6,194.5,50.4,178.2,51.4 M187.4,54.6
			c10.8,1.2,19.4,6.7,23.3,14.9c1.5,3.2,1.8,5.7,1.6,13.6c0,0.4-0.1,0.7-0.1,1.1l-0.5,2.3c-0.1,0.2-0.1,0.5-0.2,0.7h0
			c-0.2,0.5-0.6,0.8-1.1,0.8c-0.6,0.1-1.5,0.2-2.2,0.3c-7.3,1.6-11.5,1.8-19.4,0.9c-8.7-0.9-13.3-1.9-22.1-4.8
			c-11.8-3.9-19.3-7.6-21.4-10.7c-0.1-0.2-0.5-0.7-0.9-1.1c-0.4-0.4-0.5-0.9-0.2-1.4c0.5-0.8,1.6-2,3.5-3.9
			C157.3,57.7,172.4,52.9,187.4,54.6 M174.4,56c-4.7,1.3-14.3,5.8-19.6,9.4c-4.8,3.2-5.2,3.9-3.3,4.8c2.1,1,2,1.3,3.1,1.7
			c0.2,0.1,0.2,0.1,2.5,0.8c1.2,0.3,1.4,0.4,2.1-0.6c1.4-2,8-7.5,13.5-11.2C177.3,57.7,178.3,54.9,174.4,56 M165.9,62.3
			c-0.1,0.1-1,0.9-2,1.7c-1,0.8-2.8,2.5-4,3.8l-0.7,0.7c-0.9,0.9-2.2,1.3-3.5,0.9l0,0c-1.4-0.5-1.9-0.7-1.7-0.8
			C157.2,66.4,167.4,61,165.9,62.3 M128.9,72.9c8.6,0.4,10.4,1,12.2,1.4c0.1,0,0.2,0.1,0.4,0.1c0.3,0.1,1,0.4,1.1,0.4
			c1,0.3,1.1,0.5,1.9,1.2c0.1,0.1,0.2,0.2,0.4,0.4c3.8,3.8,11,7.3,23.9,11.6c14.9,5,36.6,6.1,43.3,2.2c1-0.4,1-0.4,1.7-0.7
			c0.1,0,0.1,0,0.2-0.1c1-0.3,2-0.3,2.9,0.1c0.5,0.2,1.5,0.6,4,1.5c18.2,8.4,27.8,15.4,29.5,21.2c4.6,16-72.2,10.1-125.1-9.6
			c-21.9-8.2-33.8-16.5-31.4-22.1C95.9,75.7,112.2,72.1,128.9,72.9 M117.2,111.4c-4.8,2.6-20.4,11.6-27.8,16.2
			c-10.3,6.3-35.6,22.8-37.7,24.5c-0.6,0.5-0.6,1.1,0,1.6c0.6,0.4,2.7-0.8,11.1-6.4c20.8-13.8,34.6-22.3,54.5-33.6
			C119.9,112.3,119.6,110.1,117.2,111.4 M204.5,132.6c-0.2,0.4-0.8,3-1.4,5.8c-2.6,12.3-4.8,22.6-6.6,30.6c-0.3,1.4-0.8,3.4-1,4.4
			c-0.2,1-0.5,2.3-0.6,2.9c-1.6,6.6-3.8,19.7-3.5,20.3c1,2,2.3-0.7,3.4-7.2c1.1-6.2,2.6-13.6,5-24.5c4.7-21.7,6.7-32,6.5-32.6
			C205.9,131.6,204.8,131.7,204.5,132.6"/>
	</g>
	<path class="st0" d="M83.6,164.4"/>
	<path class="st0" d="M111.7,169.3"/>
</g>
<g id="Layer_2">
</g>
</svg>
