<svg xmlns="http://www.w3.org/2000/svg" viewBox="0 0 44.53 84.94"><defs><style>.cls-1{fill-rule:evenodd;}</style></defs><title>Asset 6</title><g id="Layer_2" data-name="Layer 2"><g id="svg"><path id="path0" class="cls-1" d="M20.42.23C16.57,1.21,12.85,4,10,8.05A44,44,0,0,0,6.61,13.7,64.18,64.18,0,0,0,3,23.73c-.1.43-.27,1.13-.38,1.56-.5,2-1.5,7.13-2.08,10.68A66.27,66.27,0,0,0,.09,47.86a42,42,0,0,0,1.38,9,53.24,53.24,0,0,0,5.4,13.22c.4.63.88,1.43,1.07,1.78a27.9,27.9,0,0,0,2.89,3.74C14.58,80,19,83.13,22.92,84.31c.46.14,1,.33,1.31.43,1.18.45,6.48.07,7.05-.5a.89.89,0,0,1,.52-.15c1,0,3.66-1.6,5.46-3.3a32.42,32.42,0,0,0,5.37-8.47c2.49-6.23,2.53-9,.16-11a2.44,2.44,0,0,0-2.27-.76c-1,.06-2.7,2.71-2.71,4.27a5.43,5.43,0,0,1-.69,2.54.85.85,0,0,0-.14.47c0,1.13-3.13,6.39-4.62,7.75a7.85,7.85,0,0,1-7.3,1.76c-7.12-2.16-14.59-11.91-17-22.2-.12-.51-.28-1.17-.35-1.45C6.51,49,6.54,40.53,7.79,34c.11-.57.3-1.65.42-2.4.22-1.27,1.06-4.91,1.49-6.4.27-.93.52-1.83.89-3.18a16.49,16.49,0,0,1,1.2-3.43.83.83,0,0,0,.19-.52c0-2.2,6.12-10.78,8.45-11.86.34-.15.78-.36,1-.47a14,14,0,0,1,4.48,0c3.82,2,6.16-2.11,2.47-4.31A12.08,12.08,0,0,0,20.42.23"/></g></g></svg>