<svg xmlns="http://www.w3.org/2000/svg" viewBox="0 0 77.37 109.9"><defs><style>.cls-1{fill-rule:evenodd;}</style></defs><title>Asset 1</title><g id="Layer_2" data-name="Layer 2"><g id="svg"><path id="path0" class="cls-1" d="M43.88.11a7.26,7.26,0,0,1-1.34.3A28.93,28.93,0,0,0,38,1.46c-.8.25-1.74.52-2.08.61C33.55,2.68,27.44,5.76,24.22,8A36.9,36.9,0,0,0,18,12.76,58.68,58.68,0,0,0,3,35.52c-.39,1.15-.83,2.51-1,3S1.7,39.72,1.61,40A65,65,0,0,0,.33,46.46,141.08,141.08,0,0,0,.15,62.4,97.13,97.13,0,0,0,2,74.59c.1.28.32,1.13.5,1.87A49,49,0,0,0,7.45,88.65a44.4,44.4,0,0,0,3.3,4.69,41.09,41.09,0,0,0,6.1,6.14,53.8,53.8,0,0,0,12.17,7l2.7,1.07a9.47,9.47,0,0,0,.94.3l1.15.32a36.74,36.74,0,0,0,9.11,1.69c3.64.3,9.44-.23,11.51-1.06.23-.09,1.08-.37,1.88-.62a17,17,0,0,0,2.86-1.08,1.74,1.74,0,0,1,.63-.18,38.66,38.66,0,0,0,6.54-3.5,39.44,39.44,0,0,0,8.14-7.53c4.13-4.71,3.76-9.15-.66-8-1.78.46-2.27.82-4.69,3.42a43.66,43.66,0,0,1-5.32,5.15,37.86,37.86,0,0,1-6.1,3.41l-.93.37a12.81,12.81,0,0,1-3.09,1.06.64.64,0,0,0-.49.19,1.6,1.6,0,0,1-.8.3l-1.93.38a54,54,0,0,1-10.1,0,32.15,32.15,0,0,1-3.8-.87l-1.46-.42A41.4,41.4,0,0,1,18.68,91.5C13.92,87,10.7,81.13,8.9,73.75c-2.46-10.11-3-22.37-1.24-29.58.1-.4.34-1.39.53-2.19,2.69-11.12,10.74-22.19,21.11-29A42,42,0,0,1,33,10.73c1.94-.89,3.49-1.59,4.24-1.92l1.15-.49c4-1.68,12.36-2.32,16-1.22,4.5,1.35,6.79,2.64,8.78,5,1.75,2,4.55.7,4.14-2C66.77,6.18,61.3,2,55.16.63,54.53.49,53.68.3,53.26.19A78.12,78.12,0,0,0,43.88.11"/></g></g></svg>