<svg id="svg" xmlns="http://www.w3.org/2000/svg" viewBox="0 0 354.38 136.68"><defs><style>.cls-1{fill-rule:evenodd;}</style></defs><title>Cosmic Handwriting Full</title><path id="path0" class="cls-1" d="M63.09,48.08a6.1,6.1,0,0,1-1.33.3,28.42,28.42,0,0,0-4.57,1c-.81.25-1.74.53-2.09.62-2.33.6-8.45,3.68-11.66,5.88a37.68,37.68,0,0,0-6.23,4.8,58.76,58.76,0,0,0-15,22.77c-.4,1.14-.84,2.5-1,3s-.34,1.17-.44,1.46c-.26.78-1,4.69-1.28,6.46a143.31,143.31,0,0,0-.18,15.93,94.59,94.59,0,0,0,1.9,12.19c.09.29.32,1.13.49,1.88a48.91,48.91,0,0,0,4.91,12.18A43.23,43.23,0,0,0,30,141.31a41.45,41.45,0,0,0,6.09,6.15,54,54,0,0,0,12.17,6.95l2.71,1.07c.23.09.65.23.94.31l1.14.31a36.37,36.37,0,0,0,9.12,1.69c3.63.3,9.43-.23,11.51-1,.23-.09,1.07-.37,1.87-.62A17.59,17.59,0,0,0,78.38,155a1.59,1.59,0,0,1,.63-.19,38.43,38.43,0,0,0,6.55-3.49,40.06,40.06,0,0,0,8.13-7.54c4.13-4.71,3.76-9.15-.66-8-1.78.46-2.27.82-4.69,3.42A43.66,43.66,0,0,1,83,144.38a38.22,38.22,0,0,1-6.09,3.42l-.94.36a13.18,13.18,0,0,1-3.09,1.07.64.64,0,0,0-.49.18,1.55,1.55,0,0,1-.79.3l-1.93.38a52.46,52.46,0,0,1-10.11,0,32.61,32.61,0,0,1-3.8-.87l-1.46-.41a41.3,41.3,0,0,1-16.43-9.36c-4.75-4.53-8-10.37-9.77-17.74-2.47-10.11-3-22.37-1.24-29.59.09-.4.33-1.38.53-2.18,2.68-11.13,10.73-22.2,21.11-29a39,39,0,0,1,3.7-2.22c1.93-.89,3.48-1.59,4.24-1.91l1.14-.49c4-1.69,12.36-2.33,16.05-1.23,4.5,1.35,6.78,2.64,8.77,5,1.75,2,4.55.7,4.15-2-.59-3.89-6-8.12-12.19-9.44-.63-.13-1.49-.33-1.9-.43a76.37,76.37,0,0,0-9.39-.09M307.8,74.86c-2.71.37-7.14,3.47-8.21,5.74a3.92,3.92,0,0,1-1,1.47c-5.9,2-6.65,6.36-1.47,8.62,1.13.49,1.21.58,1.84,2,2.65,6,9.41,5.77,13.92-.56,1.54-2.16,1.64-2.28,2.13-2.28a12.38,12.38,0,0,0,4-2c2.78-2.44.86-7.29-2.91-7.32-.32,0-.6-.34-1.1-1.32-1.6-3.19-4.18-4.73-7.23-4.3M199,88.83c-7.82,2-12.89,6.3-14.86,12.48-1.1,3.42-1.22,9.48-.26,12.45,1.45,4.49,4.65,8.47,11.07,13.79.34.27,1.17,1,1.86,1.56l1.5,1.26c6.42,5.14,11.93,12.93,14.22,20.13,4.16,13.06-4.9,23.39-15.59,17.78-2.38-1.25-6.48-6.59-6.48-8.44a5,5,0,0,0-.42-1.08,4.77,4.77,0,0,1-.42-1.08A12.55,12.55,0,0,0,189,156c-1.5-4.09-4.52-6.52-6.25-5-.64.56-1.1,4.2-.72,5.73,2.28,9.17,7.08,16.11,13,18.79,10.93,4.94,22-1,24.83-13.44a33.87,33.87,0,0,0-.55-12.5,43.78,43.78,0,0,0-2-5.52c-4.08-9.14-7.69-13.47-19.13-23-5.37-4.49-7.3-7.09-8.43-11.36-1.2-4.58,1.12-10.69,4.76-12.57.3-.15.87-.46,1.28-.69a24.5,24.5,0,0,1,4.09-1.54,12,12,0,0,1,5.17.12,15.81,15.81,0,0,1,3.13,1.57c1.57,1,2.79,1,3.59-.21,2.6-3.85-6.51-9.15-12.86-7.49M136,93.68a14.27,14.27,0,0,1-2.29.43,27.23,27.23,0,0,0-3.84.84c-.92.29-1.73.53-1.82.53a40.44,40.44,0,0,0-4.23,1.88,33.13,33.13,0,0,0-15.58,17.08c-.11.28-.27.7-.37.93a49,49,0,0,0-1.43,5.21c-.11.57-.3,1.47-.42,2-1,4.61-1,14.42,0,19.25a26.41,26.41,0,0,0,9.72,15.31,11.9,11.9,0,0,1,1.09.87,49.67,49.67,0,0,0,5.41,3.2,29.12,29.12,0,0,0,19.59,2.21c8.11-1.77,15.37-7.29,20.56-15.65a39.86,39.86,0,0,0,3.19-6.24,2,2,0,0,1,.24-.69,12.15,12.15,0,0,0,1.11-3.5,27.51,27.51,0,0,0,1-6.65,47.52,47.52,0,0,0-1.37-13.23c-3.1-10.83-8.16-17.4-15.49-20.11l-.94-.36a13,13,0,0,0-1.46-.46,14.29,14.29,0,0,1-2-.74,13.55,13.55,0,0,0-4.22-1.15,13.42,13.42,0,0,1-2.26-.41c-1.78-.45-4.07-.74-4.26-.55m107.08,2.63c-3.24.4-6.33,5.11-8.08,12.29-.32,1.32-1.26,5.36-1.48,6.36a55.67,55.67,0,0,0-.94,5.73c-.18,1.43-.41,3.35-.53,4.27-.94,7.49-.84,22.44.19,28.54.6,3.58.88,5.07,1,5.73.74,2.8,1.07,4,1.38,5.1.19.69.42,1.58.52,2s.21.92.27,1.15.36,1.44.67,2.7c1.35,5.51,2.87,7.41,4.74,5.93,1.06-.83,1-2-.06-5.72-.27-.88-.74-3-1.16-5.21-.2-1-.5-2.39-.66-3a86.37,86.37,0,0,1-2.09-12c-.23-3-.16-14.56.12-17.7.13-1.49.32-3.7.43-4.9a110.76,110.76,0,0,1,1.87-11.77c.1-.46.33-1.5.52-2.32a20.66,20.66,0,0,1,.62-2.29c.16-.44.55-1.65.87-2.68a15.41,15.41,0,0,1,2.37-5c1.13-1,4.33,5.52,6.31,12.9.12.46.3,1.12.4,1.46.23.86.73,3.09,1,4.59a13.59,13.59,0,0,0,.44,1.72,3.39,3.39,0,0,1,.18,1,8.32,8.32,0,0,0,.2,1.4c.12.49.35,1.92.54,3.18.35,2.44.62,4.14.93,5.83.11.57.3,1.7.42,2.5.66,4.26,1,5.31,2.17,6.31,2.3,2,5.22.4,6.19-3.43a44.27,44.27,0,0,0,.9-4.75,45.15,45.15,0,0,1,.94-4.69,55.85,55.85,0,0,1,2.5-7.71c.36-.86.8-1.94,1-2.4a64.18,64.18,0,0,1,7.52-12.75c3.07-3.56,4.6-2.82,7.44,3.59.31.69,1.16,3.28,1.52,4.58.48,1.79.55,3.18.55,10.52a105.08,105.08,0,0,1-.71,14.69c-.32,3-.86,8.37-1.06,10.52-.1,1.09-.28,3-.4,4.17-.81,7.74-1.22,13.4-1.05,14.39.08.51.26,1.58.39,2.38.67,4.05,2.8,3.9,5-.37,1.24-2.41,1.26-2.49,1.81-9,.17-2.06.41-4.68.53-5.83s.3-3,.41-4.17c.21-2.18.36-3.67.93-9.16.54-5.18.69-7,.94-11.25a132.55,132.55,0,0,0-.19-15.84c-.12-.57-.32-1.6-.45-2.29a27.26,27.26,0,0,0-1-3.75c-.09-.23-.38-1-.63-1.67-3.07-8.22-7.9-12.46-12.58-11-2.73.83-6.15,3.67-8.18,6.81a10.81,10.81,0,0,1-.71,1c-.9.72-6.23,11-7.59,14.68s-1.44,3.82-1.63,2.24c-.15-1.3-1.19-6.07-1.77-8.17-.35-1.27-1.3-4.67-1.48-5.32-2.6-9.15-7.44-14.68-12.32-14.06M137.92,100.1c.63.12,1.61.29,2.18.38a26.73,26.73,0,0,1,9.72,4.09,15.52,15.52,0,0,0,1.74,1.12,9.09,9.09,0,0,1,1.32.91c2.94,2.25,5.81,7.46,7.22,13l.53,2.09a52.6,52.6,0,0,1,.34,11.56,30.81,30.81,0,0,1-2.33,7,16.81,16.81,0,0,0-.72,1.6c0,.91-5.09,7.25-7.5,9.34-1.76,1.52-6.12,4.08-7,4.08a.54.54,0,0,0-.42.18,1.48,1.48,0,0,1-.69.31l-1.62.34c-5.43,1.19-10.65.8-14.32-1.06a1.51,1.51,0,0,0-.57-.19c-.84,0-6.07-3.55-8.1-5.49-5.19-5-7.39-13.86-5.89-23.78.83-5.44,1-6.3,1.68-7.92l1-2.54c2.81-6.81,11.8-14.22,18.11-14.94a9.74,9.74,0,0,0,1.75-.33c.47-.19,1.53-.12,3.48.25M349.48,100c-3.85,1-7.57,3.75-10.44,7.82a44,44,0,0,0-3.37,5.65,64.18,64.18,0,0,0-3.61,10c-.1.43-.27,1.13-.38,1.56-.5,2-1.51,7.13-2.08,10.68a65.36,65.36,0,0,0-.45,11.89,41.23,41.23,0,0,0,1.38,9,53.31,53.31,0,0,0,5.4,13.23c.4.63.88,1.43,1.07,1.77a27.79,27.79,0,0,0,2.89,3.75c3.75,4.34,8.13,7.48,12.09,8.66.46.14,1,.33,1.31.43,1.17.45,6.48.07,7-.5a.87.87,0,0,1,.52-.15c1,0,3.66-1.61,5.46-3.31a32.08,32.08,0,0,0,5.36-8.46c2.5-6.24,2.54-9,.17-11a2.44,2.44,0,0,0-2.27-.76c-1,.06-2.7,2.71-2.71,4.27a5.46,5.46,0,0,1-.69,2.54.84.84,0,0,0-.14.46c0,1.14-3.13,6.39-4.62,7.76a7.87,7.87,0,0,1-7.3,1.76c-7.12-2.16-14.59-11.91-17-22.2l-.35-1.46c-1.2-4.64-1.17-13.14.08-19.68.11-.58.3-1.65.42-2.4.22-1.27,1.06-4.91,1.49-6.41.27-.93.52-1.82.89-3.17a15.88,15.88,0,0,1,1.2-3.43.85.85,0,0,0,.19-.53c0-2.19,6.12-10.77,8.45-11.85.34-.15.78-.37,1-.47a13.75,13.75,0,0,1,4.48,0c3.82,2,6.16-2.12,2.47-4.31a12.08,12.08,0,0,0-7.94-1.2m-43.86,6.34a4.09,4.09,0,0,0-.88,1.3c-1.17,5.39-1.41,8.33-1.4,17.63,0,7.71.19,14.46.63,22.55.37,6.72.74,11.83,1,14.27.11.92.35,3.21.53,5.1s.42,4,.52,4.57a16.28,16.28,0,0,1,.21,2.08c0,4.73,3.33,7.45,5.84,4.82a4.48,4.48,0,0,0,1.15-3.71c-.2-1.35-.46-3.67-.73-6.4-.12-1.26-.31-3-.42-4-.24-2-.62-6-.72-7.71-.7-11.08-1-17.55-1.16-27.19-.46-24.59-.35-22.68-1.39-23.65a2.2,2.2,0,0,0-3.21.3" transform="translate(-19.21 -47.97)"/></svg>