<svg xmlns="http://www.w3.org/2000/svg" viewBox="0 0 26.7 104.85"><defs><style>.cls-1{fill-rule:evenodd;}</style></defs><title>Asset 5</title><g id="Layer_2" data-name="Layer 2"><g id="svg"><path id="path0" class="cls-1" d="M14.15.07C11.43.45,7,3.55,5.93,5.81a3.74,3.74,0,0,1-1,1.47c-5.9,2-6.65,6.37-1.47,8.62,1.13.5,1.21.58,1.84,2,2.66,6,9.41,5.76,13.92-.57,1.54-2.16,1.65-2.27,2.13-2.27a12.33,12.33,0,0,0,4-2.06c2.79-2.44.86-7.29-2.91-7.32-.32,0-.6-.34-1.09-1.32C19.77,1.18,17.19-.35,14.15.07M12,31.5a4.2,4.2,0,0,0-.88,1.3c-1.17,5.39-1.4,8.34-1.4,17.63,0,7.71.19,14.47.64,22.55.36,6.72.73,11.83,1,14.27.11.92.35,3.22.53,5.11s.42,3.94.53,4.56A16.15,16.15,0,0,1,12.6,99c0,4.72,3.34,7.45,5.84,4.82a4.49,4.49,0,0,0,1.15-3.71c-.2-1.36-.46-3.68-.72-6.41-.13-1.26-.32-3-.43-4-.24-2-.62-6-.72-7.71-.7-11.07-1-17.55-1.15-27.18-.47-24.6-.36-22.69-1.4-23.66a2.2,2.2,0,0,0-3.21.3"/></g></g></svg>