<svg xmlns="http://www.w3.org/2000/svg" viewBox="0 0 60.38 80.31"><defs><style>.cls-1{fill-rule:evenodd;}</style></defs><title>Asset 4</title><g id="Layer_2" data-name="Layer 2"><g id="svg"><path id="path0" class="cls-1" d="M11.68.05C8.44.46,5.35,5.16,3.6,12.34c-.32,1.32-1.26,5.36-1.48,6.36a55.67,55.67,0,0,0-.94,5.73C1,25.86.77,27.78.65,28.7c-.94,7.49-.84,22.44.19,28.54.6,3.58.87,5.07,1,5.73.74,2.8,1.06,4,1.37,5.1.2.69.43,1.58.53,2S4,71,4.06,71.2s.36,1.44.67,2.7c1.35,5.51,2.87,7.41,4.74,5.93,1.06-.83,1-2-.06-5.72-.27-.88-.74-3-1.16-5.2-.2-1-.5-2.39-.66-3a86.49,86.49,0,0,1-2.09-12c-.24-3-.16-14.57.12-17.71.13-1.49.32-3.7.43-4.9A110.76,110.76,0,0,1,7.92,19.53l.51-2.32a20.37,20.37,0,0,1,.63-2.29c.16-.44.55-1.65.86-2.68a15.7,15.7,0,0,1,2.38-5c1.13-1,4.33,5.52,6.31,12.91.12.45.3,1.11.4,1.45.23.87.73,3.09,1,4.59a17.12,17.12,0,0,0,.43,1.73,3,3,0,0,1,.19,1,8.32,8.32,0,0,0,.2,1.4c.11.49.35,1.92.53,3.18.36,2.44.63,4.14.94,5.83.11.58.3,1.7.42,2.5.66,4.26,1,5.31,2.17,6.32,2.29,2,5.22.39,6.19-3.44A43.81,43.81,0,0,0,32,40a45.15,45.15,0,0,1,.94-4.69,55,55,0,0,1,2.5-7.71l1-2.39A64,64,0,0,1,44,12.4C47,8.84,48.55,9.58,51.39,16c.31.69,1.16,3.28,1.51,4.58.49,1.79.56,3.18.56,10.52a103.46,103.46,0,0,1-.72,14.69c-.32,3-.85,8.37-1.05,10.52-.1,1.09-.28,3-.41,4.17-.8,7.74-1.21,13.4-1,14.39.08.51.26,1.58.39,2.38.67,4.05,2.79,3.9,5-.37,1.24-2.41,1.26-2.48,1.81-9,.17-2.06.41-4.68.52-5.83s.3-3,.42-4.17c.21-2.18.36-3.67.93-9.16.54-5.18.69-7,.94-11.25a132.59,132.59,0,0,0-.19-15.84c-.12-.57-.32-1.6-.45-2.29a28.76,28.76,0,0,0-1-3.75l-.64-1.66C54.86,5.68,50,1.45,45.36,2.87c-2.73.82-6.15,3.67-8.18,6.8a8.65,8.65,0,0,1-.72,1c-.89.72-6.23,11.05-7.58,14.68s-1.44,3.82-1.63,2.24c-.16-1.3-1.19-6.07-1.77-8.17-.35-1.27-1.3-4.66-1.48-5.32C21.4,5,16.55-.57,11.68.05"/></g></g></svg>