<svg xmlns="http://www.w3.org/2000/svg" viewBox="0 0 38.33 88.7"><defs><style>.cls-1{fill-rule:evenodd;}</style></defs><title>Asset 3</title><g id="Layer_2" data-name="Layer 2"><g id="svg"><path id="path0" class="cls-1" d="M17,.31C9.21,2.36,4.14,6.61,2.16,12.79,1.07,16.21.94,22.27,1.9,25.24,3.36,29.73,6.56,33.72,13,39l1.85,1.56,1.51,1.27C22.76,47,28.27,54.78,30.56,62,34.72,75,25.66,85.37,15,79.77c-2.38-1.25-6.49-6.59-6.49-8.44a4.76,4.76,0,0,0-.41-1.09,5,5,0,0,1-.42-1.07,12.09,12.09,0,0,0-.54-1.68c-1.5-4.1-4.52-6.53-6.25-5-.64.56-1.1,4.2-.72,5.74,2.27,9.16,7.08,16.1,13,18.78,10.94,5,22-1,24.83-13.44A33.66,33.66,0,0,0,37.43,61a45.41,45.41,0,0,0-2-5.52c-4.09-9.13-7.69-13.47-19.13-23C10.92,28,9,25.4,7.87,21.12,6.67,16.55,9,10.43,12.63,8.56l1.27-.7A25.29,25.29,0,0,1,18,6.32a12,12,0,0,1,5.18.12A16.38,16.38,0,0,1,26.3,8c1.57,1,2.79,1,3.59-.21C32.49,4,23.37-1.35,17,.31"/></g></g></svg>