<?xml version="1.0" encoding="utf-8"?>
<!-- Generator: Adobe Illustrator 23.0.1, SVG Export Plug-In . SVG Version: 6.00 Build 0)  -->
<svg version="1.1" id="svg" xmlns="http://www.w3.org/2000/svg" xmlns:xlink="http://www.w3.org/1999/xlink" x="0px" y="0px"
	 viewBox="0 0 400 400" style="enable-background:new 0 0 400 400;" xml:space="preserve">
<style type="text/css">
	.st0{fill-rule:evenodd;clip-rule:evenodd;}
</style>
<g id="svgg">
	<path id="path0" class="st0" d="M239.3,87.6c-17.9,2.4-36.6,11.5-48.4,23.3c-3.1,3.1-7.7,9.2-8.3,10.8c-0.1,0.3-1.4,0.2-4.2-0.1
		c-31.4-3.9-66.7,0.6-76.5,9.7c-19,17.6,34.7,47,120.5,66c112,24.8,182.7,11,133.2-26c-10.9-8.1-37.5-21.8-47-24.2
		c-1.5-0.4-1.4-0.2-1-7.2c0.9-13.9-0.8-21.4-6.5-30.1C289.5,92.9,265.3,84.1,239.3,87.6 M256.9,92.2c20.1,1.6,35.2,10.5,42.4,25
		c2.8,5.6,3.1,7.3,3,19.8c-0.1,11.9-0.1,11.9-1.6,11.9c-0.6,0-3.2,0.4-5.8,0.9c-14,2.7-20.8,2.9-36.9,0.9
		c-25.8-3.1-59.2-15.4-69-25.4l-2.7-2.7l0.6-1.2c0.7-1.4,4.9-6.2,8.1-9.1C210.7,97.9,234,90.4,256.9,92.2 M235.8,95.6
		c-11.9,4-31.2,14.3-36.8,19.6c-2.3,2.1-1.3,3.2,5.5,6c1.5,0.6,3.4,1.5,4.2,1.9c1.9,1,1.6,1.2,6.2-3.5c4.6-4.6,10.9-9.7,18.6-15.2
		C244.4,96.5,245.5,92.3,235.8,95.6 M223.6,105.7c-2.3,1.7-8.5,7.4-10.8,9.9l-2.7,2.9l-3-1c-3.9-1.3-3.9-1.3,0.2-3.8
		C213.8,110,226.1,103.8,223.6,105.7 M163.7,123.7c12.6,0.7,16.6,2,18.6,2.4c0.8,0.3,1,0.4,1.5,0.5c0.8,0.2,1.7,0.6,4,2.7
		c21.6,20.3,90.3,34.6,113.1,23.5c0.2-0.1,0.5-0.2,0.7-0.3c0.6-0.2,0.8-0.3,2.2-0.8c1.3-0.6,0.2-0.1,2-0.8c2-0.7,1.9-0.7,9.1,2.5
		c63.2,29,69.9,49.6,16.8,52.2c-78.5,3.8-223.2-37-230.1-64.9C98.8,129.7,127.8,121.8,163.7,123.7 M170.6,131
		c-13.5,2.1-23,19.7-16.6,30.8c4.3,7.4,14.7,10.7,20.3,6.3c2.3-1.8,0.3-2.6-3.5-1.4c-9.6,2.9-18.3-6.5-15.6-17
		c2.9-11.4,12.8-18.5,22-15.9c3.2,0.9,4.4,1.9,6.5,5.3c0.8,1.3,1.8-0.2,1.3-2C183.6,132.9,176.8,130,170.6,131 M189.8,149.1
		c-7,2.2-11.8,12.2-8.9,18.5c4.7,10,19,8.4,22.9-2.7C207.2,154.9,199.4,146,189.8,149.1 M197.4,151.8c4.3,2.9,5.7,7.5,3.8,12.7
		c-3.9,10.3-19.1,8.5-18.5-2.2C183.2,154,191.6,148,197.4,151.8 M220.9,154.2c-4.3,1.9-5.2,6.2-2.4,12.3c3.8,8.5,2.6,15.7-2.5,15.7
		c-2.8,0-4.1-1.9-4.1-5.9c0-3.8-1.1-5.2-2.2-2.8c-2.6,5.7,2.5,13.1,7.9,11.3c6.1-2,7.5-10.2,3.4-19.3c-1.6-3.5-1.9-4.8-1.4-6.4
		c1.2-3.5,5.6-4.3,8-1.4c1.1,1.3,2.2,0.9,1.8-0.6C228.7,154.2,224.3,152.7,220.9,154.2 M238.4,161.5c-4.1,4.9-6,28.5-2.3,28.5
		c0.7,0,0.7-1.1,0.1-5.8c-0.9-7.3,2.5-23.3,4.3-20.7c0.8,1.1,1.6,5.5,2,10.3c0.5,6.6,2.1,7.3,3.9,1.7c1.5-4.5,4.9-9.9,6.3-9.9
		c2.2,0,2.4,6.2,0.4,16.4c-1.4,7.1-1.5,9.4-0.6,9.4c3,0,5.9-21.3,3.5-25.9c-2.3-4.5-5.2-3.5-9.4,3.2c-1.6,2.6-1.7,2.7-1.8,1.7
		C244.1,162.3,241.1,158.2,238.4,161.5 M276.5,162.8c-0.6,0.3-1.6,0.6-2.1,0.7c-1,0.2-1.5,1.7-0.7,2.2c0.2,0.1,0.4,0.7,0.6,1.4
		c0.5,2.3,2.1,3.1,4.6,2.1c0.6-0.2,1.7-0.5,2.5-0.6c1.7-0.3,2.3-2,1.1-3c-0.3-0.3-0.6-0.8-0.6-1.2
		C281.9,162.5,279,161.6,276.5,162.8 M297,168.5c-4.5,2.4-9.2,11.6-9.2,18c0,7.8,4.4,13.6,9.5,12.6c2.6-0.5,6.4-5.2,5.4-6.8
		c-0.7-1.1-1.2-0.8-2.7,1.2c-3.2,4.3-6.2,3.8-8.6-1.5c-3.7-8,4.7-25.2,10.4-21.6c1,0.6,1.9-0.2,1.3-1.1
		C302.1,167.7,299.2,167.3,297,168.5 M273.8,173.4c-2.3,2.5-10.1,22.2-9.6,24.3c0.6,2.6,2.1,0.9,3.9-4.6c0.8-2.4,2.9-7.8,4.6-12
		c1.7-4.2,3.1-7.8,2.9-8.1C275.4,172.4,274.7,172.5,273.8,173.4"/>
</g>
</svg>
